<svg width="143" height="47" viewBox="0 0 143 47" fill="none" xmlns="http://www.w3.org/2000/svg">
<g clip-path="url(#clip0_8841_55647)">
<path d="M71.7479 25.1606C69.3745 25.1606 67.4355 27.0122 67.4355 29.5569C67.4355 32.0912 69.3745 33.9532 71.7479 33.9532C74.1212 33.9532 76.0602 32.0912 76.0602 29.5569C76.0602 27.0122 74.1212 25.1606 71.7479 25.1606ZM71.7479 32.2257C70.4451 32.2257 69.3241 31.1291 69.3241 29.5569C69.3241 27.9742 70.4451 26.8881 71.7479 26.8881C73.0507 26.8881 74.1717 27.9742 74.1717 29.5569C74.1717 31.1291 73.0405 32.2257 71.7479 32.2257ZM62.3354 25.1606C59.9621 25.1606 58.0231 27.0122 58.0231 29.5569C58.0231 32.0912 59.9621 33.9532 62.3354 33.9532C64.7087 33.9532 66.6478 32.0912 66.6478 29.5569C66.6478 27.0122 64.7087 25.1606 62.3354 25.1606ZM62.3354 32.2257C61.0326 32.2257 59.9116 31.1291 59.9116 29.5569C59.9116 27.9742 61.0326 26.8881 62.3354 26.8881C63.6382 26.8881 64.7592 27.9742 64.7592 29.5569C64.7592 31.1291 63.6382 32.2257 62.3354 32.2257ZM51.1454 26.5156V28.3777H55.5083C55.377 29.4224 55.0336 30.1982 54.5186 30.7258C53.8823 31.3774 52.8926 32.0912 51.1556 32.0912C48.4691 32.0912 46.3684 29.8776 46.3684 27.126C46.3684 24.3744 48.4691 22.1608 51.1556 22.1608C52.5998 22.1608 53.6601 22.74 54.4378 23.4952L55.7204 22.1814C54.6297 21.116 53.1855 20.2988 51.1454 20.2988C47.4693 20.2988 44.3789 23.3608 44.3789 27.1363C44.3789 30.9016 47.4693 33.9739 51.1454 33.9739C53.1349 33.9739 54.6297 33.3118 55.8011 32.0601C57.003 30.8292 57.3766 29.0914 57.3766 27.695C57.3766 27.2604 57.3464 26.857 57.2757 26.526H51.1454V26.5156ZM96.9051 27.9638C96.5516 26.9812 95.4609 25.1606 93.229 25.1606C91.0173 25.1606 89.1792 26.9398 89.1792 29.5569C89.1792 32.0188 90.997 33.9532 93.441 33.9532C95.4104 33.9532 96.5516 32.7222 97.0162 32.0085L95.5518 31.0051C95.067 31.7395 94.4005 32.2257 93.441 32.2257C92.4816 32.2257 91.7949 31.7705 91.3606 30.8912L97.1071 28.4603L96.9051 27.9638ZM91.0475 29.4327C90.997 27.7363 92.3302 26.8674 93.2896 26.8674C94.037 26.8674 94.6732 27.2501 94.8852 27.7983L91.0475 29.4327ZM86.3817 33.6946H88.2703V20.7643H86.3817V33.6946ZM83.2914 26.1433H83.2206C82.7965 25.6261 81.9886 25.1606 80.9584 25.1606C78.8072 25.1606 76.838 27.0949 76.838 29.5776C76.838 32.0395 78.8072 33.9635 80.9584 33.9635C81.9784 33.9635 82.7965 33.4979 83.2206 32.9601H83.2812V33.5911C83.2812 35.2772 82.4026 36.1771 80.9886 36.1771C79.8374 36.1771 79.1203 35.3289 78.8275 34.6152L77.1813 35.3186C77.656 36.4874 78.9082 37.9149 80.9886 37.9149C83.2005 37.9149 85.0688 36.5806 85.0688 33.3325V25.4295H83.2812V26.1433H83.2914ZM81.1199 32.2257C79.8172 32.2257 78.7264 31.1084 78.7264 29.5776C78.7264 28.0259 79.8172 26.8984 81.1199 26.8984C82.4026 26.8984 83.4125 28.0363 83.4125 29.5776C83.4226 31.1084 82.4127 32.2257 81.1199 32.2257ZM105.752 20.7643H101.238V33.6946H103.126V28.7914H105.762C107.853 28.7914 109.903 27.2397 109.903 24.7779C109.903 22.316 107.832 20.7643 105.752 20.7643ZM105.792 26.9916H103.116V22.5539H105.792C107.206 22.5539 108.004 23.7538 108.004 24.7675C108.004 25.7813 107.206 26.9916 105.792 26.9916ZM117.447 25.1399C116.084 25.1399 114.67 25.7606 114.084 27.1156L115.76 27.8294C116.114 27.1156 116.78 26.8777 117.477 26.8777C118.447 26.8777 119.447 27.4776 119.457 28.5431V28.6777C119.113 28.481 118.386 28.1811 117.487 28.1811C115.68 28.1811 113.852 29.1948 113.852 31.0877C113.852 32.8152 115.326 33.9325 116.982 33.9325C118.245 33.9325 118.952 33.3532 119.386 32.6705H119.447V33.6739H121.264V28.719C121.275 26.4226 119.598 25.1399 117.447 25.1399ZM117.215 32.2257C116.599 32.2257 115.74 31.905 115.74 31.1291C115.74 30.1361 116.811 29.7534 117.74 29.7534C118.568 29.7534 118.962 29.9396 119.457 30.1878C119.315 31.3774 118.305 32.2257 117.215 32.2257ZM127.9 25.4192L125.739 31.0258H125.678L123.435 25.4192H121.406L124.769 33.26L122.85 37.6149H124.82L130 25.4192H127.9ZM110.933 33.6946H112.822V20.7643H110.933V33.6946Z" fill="white"/>
<path d="M13.4763 10.463C13.1834 10.7837 13.0117 11.2802 13.0117 11.9112V34.7925C13.0117 35.4339 13.1834 35.9304 13.4763 36.2406L13.547 36.3131L26.06 23.507V23.3519V23.1966L13.547 10.3906L13.4763 10.463Z" fill="url(#paint0_linear_8841_55647)"/>
<path d="M30.2295 27.7784L26.0586 23.5063V23.3512V23.1959L30.2295 18.9238L30.3205 18.9755L35.259 21.8512C36.6729 22.6685 36.6729 24.0132 35.259 24.8406L30.3205 27.7164L30.2295 27.7784Z" fill="url(#paint1_linear_8841_55647)"/>
<path d="M30.3201 27.7167L26.0583 23.3516L13.4746 36.2404C13.9392 36.7472 14.7067 36.8093 15.5752 36.3025L30.3201 27.7167Z" fill="url(#paint2_linear_8841_55647)"/>
<path d="M30.3205 18.987L15.5655 10.4013C14.697 9.89445 13.9294 9.95652 13.4648 10.4634L26.0586 23.3522L30.3205 18.987Z" fill="url(#paint3_linear_8841_55647)"/>
<path opacity="0.2" d="M30.2311 27.625L15.5671 36.159C14.7491 36.6348 14.0118 36.6037 13.5473 36.1692L13.4766 36.2416L13.5473 36.3141C14.0219 36.7485 14.7491 36.7796 15.5671 36.3037L30.322 27.7181L30.2311 27.625Z" fill="#383838"/>
<path opacity="0.12" d="M13.4763 36.0966C13.1834 35.776 13.0117 35.2794 13.0117 34.6484V34.8036C13.0117 35.4449 13.1834 35.9414 13.4763 36.2518L13.547 36.1794L13.4763 36.0966Z" fill="#383838"/>
<path opacity="0.12" d="M35.2583 24.6963L30.2188 27.6238L30.3096 27.7169L35.2482 24.8411C35.9551 24.4274 36.3086 23.8895 36.3086 23.3516C36.2581 23.8378 35.9046 24.324 35.2583 24.6963Z" fill="#383838"/>
<path opacity="0.25" d="M15.5652 10.5449L35.2587 22.0062C35.895 22.3785 36.2585 22.8543 36.3192 23.3509C36.3192 22.8131 35.9657 22.2648 35.2587 21.8614L15.5652 10.4001C14.1513 9.58293 13 10.2656 13 11.9207V12.0759C13 10.4105 14.1614 9.72775 15.5652 10.5449Z" fill="white"/>
<path d="M49.2041 14.1255V15H44.4888V14.1255H49.2041ZM44.7612 14.1255V16.5732H43.7065L43.667 14.1255H44.7612ZM50.0566 14.1255L49.9907 16.5688H48.9536V14.1255H50.0566ZM48.4307 8.60156V9.48047H45.4775V8.60156H48.4307ZM49.2744 8.60156V15H48.1758V8.60156H49.2744ZM45.2578 8.60156H46.3608L46.207 11.1943C46.1836 11.6045 46.1411 11.9736 46.0796 12.3018C46.0181 12.6299 45.9434 12.9243 45.8555 13.1851C45.7705 13.4429 45.6738 13.6714 45.5654 13.8706C45.457 14.0669 45.3413 14.2368 45.2183 14.3804C45.0952 14.5239 44.9692 14.647 44.8403 14.7495C44.7144 14.8491 44.5898 14.9326 44.4668 15H43.8779V14.1255H44.1636C44.2427 14.0522 44.3306 13.9468 44.4272 13.8091C44.5239 13.6685 44.6177 13.4854 44.7085 13.2598C44.8022 13.0312 44.8843 12.7485 44.9546 12.4116C45.0249 12.0747 45.0732 11.6689 45.0996 11.1943L45.2578 8.60156ZM53.4536 9.4541L51.542 15H50.3862L52.7944 8.60156H53.5327L53.4536 9.4541ZM55.0532 15L53.1372 9.4541L53.0537 8.60156H53.7964L56.2134 15H55.0532ZM54.9609 12.627V13.5015H51.4805V12.627H54.9609ZM59.6191 8.60156H60.6035L62.4536 13.5366L64.2993 8.60156H65.2837L62.8403 15H62.0581L59.6191 8.60156ZM59.1709 8.60156H60.1069L60.2695 12.873V15H59.1709V8.60156ZM64.7959 8.60156H65.7363V15H64.6333V12.873L64.7959 8.60156ZM69.6167 9.4541L67.7051 15H66.5493L68.9575 8.60156H69.6958L69.6167 9.4541ZM71.2163 15L69.3003 9.4541L69.2168 8.60156H69.9595L72.3765 15H71.2163ZM71.124 12.627V13.5015H67.6436V12.627H71.124ZM75.4922 12.1084H73.8618L73.853 11.3042H75.2769C75.5171 11.3042 75.7207 11.269 75.8877 11.1987C76.0576 11.1255 76.1865 11.0215 76.2744 10.8867C76.3623 10.749 76.4062 10.5835 76.4062 10.3901C76.4062 10.1763 76.3652 10.002 76.2832 9.86719C76.2012 9.73242 76.0752 9.63428 75.9053 9.57275C75.7383 9.51123 75.5244 9.48047 75.2637 9.48047H74.1958V15H73.0928V8.60156H75.2637C75.6152 8.60156 75.9287 8.63525 76.2041 8.70264C76.4824 8.77002 76.7183 8.87549 76.9116 9.01904C77.1079 9.15967 77.2559 9.33838 77.3555 9.55518C77.458 9.77197 77.5093 10.0298 77.5093 10.3286C77.5093 10.5923 77.4463 10.834 77.3203 11.0537C77.1943 11.2705 77.0083 11.4478 76.7622 11.5854C76.5161 11.7231 76.21 11.8052 75.8438 11.8315L75.4922 12.1084ZM75.4438 15H73.5146L74.0112 14.1255H75.4438C75.6929 14.1255 75.9009 14.0845 76.0679 14.0024C76.2349 13.9175 76.3594 13.8018 76.4414 13.6553C76.5264 13.5059 76.5688 13.3315 76.5688 13.1323C76.5688 12.9243 76.5322 12.7441 76.459 12.5918C76.3857 12.4365 76.27 12.3179 76.1118 12.2358C75.9536 12.1509 75.7471 12.1084 75.4922 12.1084H74.2529L74.2617 11.3042H75.8745L76.125 11.6074C76.4766 11.6191 76.7651 11.6968 76.9907 11.8403C77.2192 11.9839 77.3892 12.1699 77.5005 12.3984C77.6118 12.627 77.6675 12.873 77.6675 13.1367C77.6675 13.5439 77.5781 13.8853 77.3994 14.1606C77.2236 14.436 76.9702 14.6455 76.6392 14.7891C76.3081 14.9297 75.9097 15 75.4438 15ZM80.7217 12.2314L78.353 8.60156H79.6934L81.2534 11.2778H82.4048L82.251 12.2314H80.7217ZM81.271 12.0908L79.5923 15H78.2212L80.4492 11.3438L81.271 12.0908ZM83.042 8.60156V15H81.9434V8.60156H83.042ZM86.5884 8.60156L84.2373 12.2314H82.73L82.5762 11.2778H83.7056L85.2437 8.60156H86.5884ZM85.3447 15L83.6924 12.0908L84.5186 11.3438L86.7158 15H85.3447ZM89.3965 12.772L91.0225 8.60156H92.2397L90.0161 13.8398C89.9458 14.001 89.8652 14.1577 89.7744 14.3101C89.6865 14.4595 89.5796 14.5928 89.4536 14.71C89.3276 14.8271 89.1753 14.9209 88.9966 14.9912C88.8179 15.0586 88.6011 15.0923 88.3462 15.0923C88.2788 15.0923 88.1968 15.0894 88.1001 15.0835C88.0063 15.0776 87.9375 15.0718 87.8936 15.0659L87.9023 14.2002C87.9375 14.2061 87.9961 14.2104 88.0781 14.2134C88.1631 14.2163 88.2246 14.2178 88.2627 14.2178C88.4326 14.2178 88.5674 14.1899 88.667 14.1343C88.7666 14.0757 88.8457 13.998 88.9043 13.9014C88.9658 13.8018 89.02 13.6934 89.0669 13.5762L89.3965 12.772ZM88.1748 8.60156L89.7832 12.1436L90.0996 13.2949L89.2427 13.3257L86.9707 8.60156H88.1748ZM97.7725 14.1255V15H93.0571V14.1255H97.7725ZM93.3296 14.1255V16.5732H92.2749L92.2354 14.1255H93.3296ZM98.625 14.1255L98.5591 16.5688H97.522V14.1255H98.625ZM96.999 8.60156V9.48047H94.0459V8.60156H96.999ZM97.8428 8.60156V15H96.7441V8.60156H97.8428ZM93.8262 8.60156H94.9292L94.7754 11.1943C94.752 11.6045 94.7095 11.9736 94.6479 12.3018C94.5864 12.6299 94.5117 12.9243 94.4238 13.1851C94.3389 13.4429 94.2422 13.6714 94.1338 13.8706C94.0254 14.0669 93.9097 14.2368 93.7866 14.3804C93.6636 14.5239 93.5376 14.647 93.4087 14.7495C93.2827 14.8491 93.1582 14.9326 93.0352 15H92.4463V14.1255H92.7319C92.811 14.0522 92.8989 13.9468 92.9956 13.8091C93.0923 13.6685 93.186 13.4854 93.2769 13.2598C93.3706 13.0312 93.4526 12.7485 93.5229 12.4116C93.5933 12.0747 93.6416 11.6689 93.668 11.1943L93.8262 8.60156Z" fill="white"/>
</g>
<rect x="1.08333" y="1.08333" width="140.833" height="44.4167" rx="5.41667" stroke="#D8D8D8" stroke-opacity="0.2" stroke-width="2.16667"/>
<defs>
<linearGradient id="paint0_linear_8841_55647" x1="24.9487" y1="11.673" x2="7.59372" y2="28.6171" gradientUnits="userSpaceOnUse">
<stop stop-color="#00A0FF"/>
<stop offset="0.00657445" stop-color="#00A1FF"/>
<stop offset="0.2601" stop-color="#00BEFF"/>
<stop offset="0.5122" stop-color="#00D2FF"/>
<stop offset="0.7604" stop-color="#00DFFF"/>
<stop offset="1" stop-color="#00E3FF"/>
</linearGradient>
<linearGradient id="paint1_linear_8841_55647" x1="37.1016" y1="23.3526" x2="12.6645" y2="23.3526" gradientUnits="userSpaceOnUse">
<stop stop-color="#FFE000"/>
<stop offset="0.4087" stop-color="#FFBD00"/>
<stop offset="0.7754" stop-color="#FFA500"/>
<stop offset="1" stop-color="#FF9C00"/>
</linearGradient>
<linearGradient id="paint2_linear_8841_55647" x1="28.0044" y1="25.7267" x2="4.46958" y2="48.7043" gradientUnits="userSpaceOnUse">
<stop stop-color="#FF3A44"/>
<stop offset="1" stop-color="#C31162"/>
</linearGradient>
<linearGradient id="paint3_linear_8841_55647" x1="10.3011" y1="2.84616" x2="20.8104" y2="13.1066" gradientUnits="userSpaceOnUse">
<stop stop-color="#32A071"/>
<stop offset="0.0685" stop-color="#2DA771"/>
<stop offset="0.4762" stop-color="#15CF74"/>
<stop offset="0.8009" stop-color="#06E775"/>
<stop offset="1" stop-color="#00F076"/>
</linearGradient>
<clipPath id="clip0_8841_55647">
<rect width="117" height="29.25" fill="white" transform="translate(13 8.66602)"/>
</clipPath>
</defs>
</svg>
